<svg width="426" height="69" viewBox="0 0 426 69" fill="none" xmlns="http://www.w3.org/2000/svg">
<path d="M31.0005 68H13.0005V21.1H0.000488352V7C2.13382 7 4.03382 6.8 5.70049 6.39999C7.36716 6 8.86716 5.36666 10.2005 4.49999C11.6005 3.63333 12.8672 2.46667 14.0005 0.999998H31.0005V68ZM70.6216 68.8C64.0882 68.8 58.4549 67.3667 53.7216 64.5C49.0549 61.5667 45.4549 57.5333 42.9216 52.4C40.3882 47.2 39.1216 41.2 39.1216 34.4C39.1216 27.6 40.3882 21.6333 42.9216 16.5C45.4549 11.3 49.0549 7.26666 53.7216 4.4C58.4549 1.46666 64.0882 -7.15256e-07 70.6216 -7.15256e-07C77.1549 -7.15256e-07 82.7549 1.46666 87.4216 4.4C92.1549 7.26666 95.7883 11.3 98.3216 16.5C100.855 21.6333 102.122 27.6 102.122 34.4C102.122 41.2 100.855 47.2 98.3216 52.4C95.7883 57.5333 92.1549 61.5667 87.4216 64.5C82.7549 67.3667 77.1549 68.8 70.6216 68.8ZM70.6216 51.3C73.4216 51.3 75.7549 50.6333 77.6216 49.3C79.4883 47.9667 80.8549 46.0333 81.7216 43.5C82.6549 40.9667 83.1216 37.9333 83.1216 34.4C83.1216 30.8 82.6549 27.7667 81.7216 25.3C80.8549 22.7667 79.4883 20.8333 77.6216 19.5C75.7549 18.1667 73.4216 17.5 70.6216 17.5C67.8216 17.5 65.4883 18.1667 63.6216 19.5C61.8216 20.8333 60.4549 22.7667 59.5216 25.3C58.5882 27.7667 58.1216 30.8 58.1216 34.4C58.1216 37.9333 58.5882 40.9667 59.5216 43.5C60.4549 46.0333 61.8216 47.9667 63.6216 49.3C65.4883 50.6333 67.8216 51.3 70.6216 51.3ZM140.836 68.8C134.303 68.8 128.67 67.3667 123.936 64.5C119.27 61.5667 115.67 57.5333 113.136 52.4C110.603 47.2 109.336 41.2 109.336 34.4C109.336 27.6 110.603 21.6333 113.136 16.5C115.67 11.3 119.27 7.26666 123.936 4.4C128.67 1.46666 134.303 -7.15256e-07 140.836 -7.15256e-07C147.37 -7.15256e-07 152.97 1.46666 157.636 4.4C162.37 7.26666 166.003 11.3 168.536 16.5C171.07 21.6333 172.336 27.6 172.336 34.4C172.336 41.2 171.07 47.2 168.536 52.4C166.003 57.5333 162.37 61.5667 157.636 64.5C152.97 67.3667 147.37 68.8 140.836 68.8ZM140.836 51.3C143.636 51.3 145.97 50.6333 147.836 49.3C149.703 47.9667 151.07 46.0333 151.936 43.5C152.87 40.9667 153.336 37.9333 153.336 34.4C153.336 30.8 152.87 27.7667 151.936 25.3C151.07 22.7667 149.703 20.8333 147.836 19.5C145.97 18.1667 143.636 17.5 140.836 17.5C138.036 17.5 135.703 18.1667 133.836 19.5C132.036 20.8333 130.67 22.7667 129.736 25.3C128.803 27.7667 128.336 30.8 128.336 34.4C128.336 37.9333 128.803 40.9667 129.736 43.5C130.67 46.0333 132.036 47.9667 133.836 49.3C135.703 50.6333 138.036 51.3 140.836 51.3ZM197.856 68H179.856V0.999998H204.856L211.456 20.5L217.356 43.7L223.256 20.5L229.856 0.999998H254.856V68H236.856V50.6L239.756 17.7L231.356 43.7L227.056 56H207.656L203.356 43.7L194.956 17.7L197.856 50.6V68ZM309.056 68H286.156V52H308.056C311.589 52 314.389 51.2333 316.456 49.7C318.589 48.1667 320.123 46.0667 321.056 43.4C322.056 40.7333 322.556 37.7667 322.556 34.5C322.556 31.1667 322.056 28.2 321.056 25.6C320.056 22.9333 318.456 20.8333 316.256 19.3C314.123 17.7667 311.289 17 307.756 17H286.156V0.999998H308.756C315.356 0.999998 321.123 2.46666 326.056 5.4C330.989 8.26666 334.789 12.2333 337.456 17.3C340.189 22.3 341.556 28.0333 341.556 34.5C341.556 40.9 340.223 46.6333 337.556 51.7C334.889 56.7667 331.123 60.7667 326.256 63.7C321.389 66.5667 315.656 68 309.056 68ZM297.856 68H279.856V0.999998H297.856V68ZM365.922 68H347.922V0.999998H365.922V68ZM406.636 68H388.636V0.999998H406.636V68ZM425.936 17H369.336V0.999998H425.936V17Z" fill="url(#paint0_linear_202_49246)"/>
<defs>
<linearGradient id="paint0_linear_202_49246" x1="213" y1="2.15921" x2="213" y2="68" gradientUnits="userSpaceOnUse">
<stop stop-color="#2E2D2C"/>
<stop offset="1" stop-color="#1B1B1B"/>
</linearGradient>
</defs>
</svg>
